<svg width="32" height="32" viewBox="0 0 32 32" fill="none" xmlns="http://www.w3.org/2000/svg">
    <path
        d="M9.90481 9.90469H22.0953M9.90481 15.9999H19.0477M19.8096 24.3809L16.0001 28.1904L11.4286 23.619H6.85719C5.64478 23.619 4.48202 23.1373 3.62471 22.28C2.7674 21.4227 2.28577 20.26 2.28577 19.0476V6.85707C2.28577 5.64466 2.7674 4.48189 3.62471 3.62459C4.48202 2.76728 5.64478 2.28564 6.85719 2.28564H25.1429C26.3553 2.28564 27.5181 2.76728 28.3754 3.62459C29.2327 4.48189 29.7143 5.64466 29.7143 6.85707V13.7142M26.6667 29.7142V29.7295M26.6667 25.1428C27.3498 25.1406 28.0125 24.9093 28.5486 24.486C29.0847 24.0626 29.4633 23.4716 29.6238 22.8076C29.7842 22.1436 29.7173 21.4449 29.4337 20.8235C29.1501 20.202 28.6662 19.6936 28.0595 19.3797C27.4533 19.0692 26.7598 18.9729 26.0919 19.1066C25.4241 19.2402 24.8211 19.5959 24.381 20.1157"
        stroke="white" stroke-width="3.04762" stroke-linecap="round" stroke-linejoin="round" />
</svg>